<svg xmlns="http://www.w3.org/2000/svg" width="46" height="46" viewBox="0 0 46 46"><defs><style>.a{fill:none;}.b{fill:#ff1744;}</style></defs><path class="a" d="M0,0H46V46H0Z"/><path class="b" d="M2.978,4.99a1.909,1.909,0,0,0,0,2.7l4.734,4.734a14.161,14.161,0,0,0-.345,2.99c0,7.992,8.472,19.013,11.941,23.211a1.9,1.9,0,0,0,2.932,0c1.246-1.495,3.1-3.852,5-6.632l5.079,5.079a1.911,1.911,0,0,0,2.7-2.7L5.681,4.99A1.909,1.909,0,0,0,2.978,4.99ZM20.784,2a13.386,13.386,0,0,0-9.1,3.565l6.114,6.114a4.785,4.785,0,0,1,7.782,3.737,4.714,4.714,0,0,1-1.073,2.99l6.8,6.8c1.687-3.354,2.894-6.785,2.894-9.794A13.407,13.407,0,0,0,20.784,2Z" transform="translate(2.216 1.833)"/></svg>